Coordinates
version=1
nRows=8
nColumns=28
inDegrees=yes

Units are S.I. units (second, meters, Newtons, ...)
If the header above contains a line with 'inDegrees', this indicates whether rotational values are in degrees (yes) or radians (no).

endheader
time	pelvis_tilt	pelvis_list	pelvis_rotation	pelvis_tx	pelvis_ty	pelvis_tz	hip_flexion_r	hip_adduction_r	hip_rotation_r	knee_angle_r	knee_angle_r_ie	knee_angle_r_vv	ankle_angle_r	subtalar_angle_r	mtp_angle_r	hip_flexion_l	hip_adduction_l	hip_rotation_l	knee_angle_l	knee_angle_l_ie	knee_angle_l_vv	ankle_angle_l	subtalar_angle_l	mtp_angle_l	lumbar_extension	lumbar_bending	lumbar_rotation
      8.25000000	      3.42911461	      7.76991904	     12.59878378	      0.26988350	      0.91572904	      0.41336578	     -0.89184006	    -11.83605523	    -12.86297367	    -10.92843478	     -4.70799885	     -0.36424558	      7.20016179	    -10.97293332	      0.00000000	      3.85263621	    -15.77729409	     -1.23044120	     -6.49153635	     14.18797246	     -3.29931611	     -2.69610045	      0.17308259	      0.00000000	    -25.57645732	      3.64292976	     -8.15393651
      8.25500000	      3.35989746	      7.95708523	     12.72482051	      0.26930656	      0.91550263	      0.41143457	     -0.77133980	    -12.18454427	    -12.93817635	    -11.14783642	     -4.73308970	     -0.40603110	      7.25634548	    -10.94165983	      0.00000000	      3.88509010	    -16.06870609	     -1.31223387	     -6.35599833	     14.28512848	     -3.24902911	     -2.98075471	      0.19867749	      0.00000000	    -25.62947885	      3.60543951	     -8.25975685
      8.26000000	      3.28977624	      8.13342151	     12.84342774	      0.26873009	      0.91525100	      0.40950931	     -0.65146381	    -12.51528356	    -13.02628943	    -11.35260459	     -4.74366418	     -0.46426214	      7.31226806	    -10.89339584	      0.00000000	      3.92147041	    -16.38085960	     -1.38519384	     -6.23220749	     14.38095576	     -3.21220517	     -3.26522905	      0.21889677	      0.00000000	    -25.68064326	      3.57225574	     -8.35653221
      8.26500000	      3.22123393	      8.30876183	     12.95879347	      0.26816904	      0.91499392	      0.40752642	     -0.54276746	    -12.84768775	    -13.13410618	    -11.54250701	     -4.74309378	     -0.52711418	      7.36693178	    -10.83119411	      0.00000000	      3.95389124	    -16.69517021	     -1.44148856	     -6.11687711	     14.47267726	     -3.18111993	     -3.54673949	      0.23522434	      0.00000000	    -25.73328794	      3.54129538	     -8.44063501
      8.27000000	      3.17090510	      8.51531146	     13.08572701	      0.26759533	      0.91477925	      0.40543388	     -0.47422368	    -13.22156388	    -13.27041903	    -11.72401887	     -4.73342529	     -0.58135484	      7.41821529	    -10.75792450	      0.00000000	      3.96504102	    -16.96975502	     -1.46910340	     -6.00794916	     14.56127460	     -3.14033454	     -3.82985245	      0.25125345	      0.00000000	    -25.81023001	      3.48843729	     -8.53572735
      8.27500000	      3.12072829	      8.69554421	     13.19757991	      0.26703324	      0.91452837	      0.40336237	     -0.39500038	    -13.56126588	    -13.40263427	    -11.90467940	     -4.70815022	     -0.65294780	      7.47598528	    -10.67916202	      0.00000000	      3.97941605	    -17.28436551	     -1.49342076	     -5.91468486	     14.64957234	     -3.11826779	     -4.10841410	      0.26603966	      0.00000000	    -25.88845837	      3.45452847	     -8.60727879
      8.28000000	      3.06796384	      8.89776029	     13.30270014	      0.26647231	      0.91428241	      0.40120573	     -0.31703478	    -13.93748651	    -13.55435333	    -12.08716496	     -4.66943349	     -0.72205595	      7.54066782	    -10.58083567	      0.00000000	      3.98448380	    -17.56836148	     -1.49601035	     -5.82461067	     14.74521436	     -3.09431020	     -4.39562985	      0.27611413	      0.00000000	    -25.97240041	      3.40712700	     -8.67445928
      8.28500000	      3.03057666	      9.12864204	     13.40963838	      0.26588473	      0.91406337	      0.39896920	     -0.25810865	    -14.35411175	    -13.70941261	    -12.28621721	     -4.62638103	     -0.78276053	      7.61133471	    -10.47563047	      0.00000000	      3.97135787	    -17.81565506	     -1.47845211	     -5.74760338	     14.83598579	     -3.06243006	     -4.67550604	      0.28670392	      0.00000000	    -26.08048077	      3.33547190	     -8.75091015
